<?xml version="1.0" encoding="utf-8"?>
<!-- Generator: Adobe Illustrator 23.0.6, SVG Export Plug-In . SVG Version: 6.00 Build 0)  -->
<svg version="1.1" id="Layer_1" xmlns="http://www.w3.org/2000/svg" xmlns:xlink="http://www.w3.org/1999/xlink" x="0px" y="0px" width="158" height="64"
	 viewBox="0 0 450 180" style="enable-background:new 0 0 450 180;" xml:space="preserve">
<style type="text/css">
	.st0{opacity:0.4;enable-background:new    ;}
	.st1{enable-background:new    ;}
	.st2{fill:#F15A29;}
	.st3{fill:none;}
</style>
<path d="M20,104.8V56.3h19.4c5,0,8.9,1.2,11.5,3.5c2.7,2.3,4,5.3,4,9c0,3-0.8,5.5-2.5,7.3c-1.6,1.8-3.6,3.1-6,3.7
	c2.8,0.6,5.1,1.9,6.9,4.1c1.8,2.2,2.7,4.7,2.7,7.6c0,3.8-1.4,7-4.2,9.5c-2.8,2.5-6.7,3.7-11.8,3.7H20z M28.9,76.7h9.3
	c2.5,0,4.4-0.6,5.7-1.7c1.3-1.2,2-2.8,2-4.9c0-2-0.7-3.6-2-4.8c-1.3-1.2-3.3-1.8-5.9-1.8h-9.1V76.7z M28.9,97.6h9.9
	c2.6,0,4.7-0.6,6.1-1.8c1.5-1.2,2.2-2.9,2.2-5.2c0-2.3-0.8-4-2.3-5.3c-1.5-1.3-3.6-1.9-6.2-1.9h-9.8V97.6z"/>
<path d="M61.5,104.8V69.5h7.9l0.8,7.4c1.2-2.2,2.9-4,5.1-5.3c2.1-1.3,4.7-2,7.6-2v9.3h-2.5c-1.9,0-3.7,0.3-5.2,0.9
	c-1.5,0.6-2.7,1.6-3.6,3.1c-0.9,1.5-1.3,3.5-1.3,6.2v15.6H61.5z"/>
<rect x="88.4" y="69.5" width="8.9" height="35.3"/>
<path d="M120.7,105.6c-3.5,0-6.6-0.8-9.3-2.3c-2.7-1.5-4.8-3.6-6.3-6.4c-1.5-2.7-2.3-5.8-2.3-9.3c0-3.5,0.8-6.6,2.3-9.3
	c1.5-2.7,3.7-4.8,6.3-6.4c2.7-1.5,5.8-2.3,9.3-2.3c4.4,0,8.1,1.1,11.1,3.4c3,2.3,4.9,5.4,5.7,9.4h-9.3c-0.5-1.7-1.4-3-2.7-3.9
	c-1.4-0.9-3-1.4-4.8-1.4c-2.4,0-4.5,0.9-6.2,2.8c-1.7,1.8-2.6,4.4-2.6,7.7c0,3.3,0.9,5.8,2.6,7.7c1.7,1.8,3.8,2.8,6.2,2.8
	c1.8,0,3.4-0.5,4.8-1.4c1.4-0.9,2.3-2.2,2.7-3.9h9.3c-0.8,3.9-2.7,7-5.7,9.3C128.7,104.4,125,105.6,120.7,105.6"/>
<polygon points="143,104.8 143,54.1 151.8,54.1 151.8,84.3 164,70.4 174.5,70.4 160.5,86.1 176.8,104.8 165.7,104.8 151.8,87.5 
	151.8,104.8 "/>
<path d="M210.8,105.5c-3.6,0-6.6-0.6-9.3-1.8c-2.6-1.2-4.7-2.9-6.1-5.2c-1.5-2.2-2.2-4.8-2.2-7.8c0-3.1,0.9-6,2.6-8.5
	s4.4-4.6,7.8-6.1c-1.4-1.6-2.4-3.1-3-4.6c-0.6-1.4-0.9-3-0.9-4.6c0-2.2,0.6-4.2,1.7-5.9c1.1-1.7,2.7-3.1,4.7-4.1
	c2.1-1,4.5-1.5,7.4-1.5c2.9,0,5.4,0.5,7.4,1.6c2,1.1,3.6,2.5,4.6,4.3c1,1.8,1.5,3.8,1.4,6h-8.4c0-1.7-0.5-3-1.5-3.8
	s-2.2-1.3-3.6-1.3c-1.6,0-2.8,0.4-3.8,1.3c-0.9,0.9-1.4,2-1.4,3.4c0,1.2,0.4,2.3,1.1,3.5c0.7,1.2,1.8,2.6,3.3,4.2l13.6,13.4
	c1-1.6,2-3.4,3-5.5l1.5-3h9.1l-2.4,4.7c-1.8,3.7-3.7,6.9-5.5,9.5l11.1,11h-10.6l-5.4-5.4c-2.4,2.2-4.9,3.7-7.5,4.7
	C216.9,105,214,105.5,210.8,105.5 M201.8,90.2c0,2.3,0.8,4.2,2.5,5.7c1.7,1.5,3.9,2.3,6.7,2.3c4,0,7.5-1.4,10.5-4.3l-12.8-12.7
	c-2.4,1-4.1,2.3-5.2,3.8C202.4,86.6,201.8,88.3,201.8,90.2"/>
<path d="M259.5,104.8V56.3h19.4c5,0,8.9,1.2,11.5,3.5c2.7,2.3,4,5.3,4,9c0,3-0.8,5.5-2.5,7.3c-1.6,1.8-3.6,3.1-6,3.7
	c2.8,0.6,5.1,1.9,6.9,4.1c1.8,2.2,2.7,4.7,2.7,7.6c0,3.8-1.4,7-4.2,9.5c-2.8,2.5-6.7,3.7-11.8,3.7H259.5z M268.3,76.7h9.3
	c2.5,0,4.4-0.6,5.7-1.7c1.3-1.2,2-2.8,2-4.9c0-2-0.7-3.6-2-4.8c-1.3-1.2-3.3-1.8-5.9-1.8h-9.1V76.7z M268.3,97.6h9.9
	c2.6,0,4.7-0.6,6.1-1.8c1.5-1.2,2.2-2.9,2.2-5.2c0-2.3-0.8-4-2.3-5.3c-1.5-1.3-3.6-1.9-6.2-1.9h-9.8V97.6z"/>
<path d="M318.6,105.6c-3.3,0-6.3-0.8-9-2.3c-2.7-1.5-4.8-3.6-6.3-6.3c-1.5-2.7-2.3-5.8-2.3-9.4c0-3.6,0.8-6.7,2.4-9.4
	c1.6-2.7,3.7-4.8,6.3-6.3c2.7-1.5,5.6-2.3,9-2.3c3.3,0,6.2,0.8,8.9,2.3c2.7,1.5,4.8,3.6,6.3,6.3c1.5,2.7,2.3,5.8,2.3,9.4
	c0,3.6-0.8,6.7-2.3,9.4c-1.5,2.7-3.7,4.8-6.3,6.3C324.8,104.8,321.9,105.6,318.6,105.6 M318.6,97.9c2.3,0,4.3-0.9,6-2.6
	c1.7-1.7,2.6-4.3,2.6-7.7c0-3.4-0.9-6-2.6-7.7c-1.7-1.7-3.7-2.6-6-2.6c-2.4,0-4.4,0.9-6.1,2.6c-1.7,1.7-2.5,4.3-2.5,7.7
	c0,3.4,0.8,6,2.5,7.7C314.3,97,316.3,97.9,318.6,97.9"/>
<rect x="341.7" y="54.1" width="8.9" height="50.6"/>
<path d="M373.8,104.8c-3.6,0-6.5-0.9-8.7-2.6c-2.2-1.8-3.3-4.9-3.3-9.3V77.8H356v-7.4h5.9l1-9.2h7.8v9.2h9.3v7.4h-9.3v15
	c0,1.7,0.4,2.8,1.1,3.4c0.7,0.6,2,0.9,3.7,0.9h4.3v7.5H373.8z"/>
<rect x="87.4" y="50.9" transform="matrix(0.7071 -0.7071 0.7071 0.7071 -11.2715 83.53)" class="st2" width="15.6" height="8.9"/>
<polygon class="st2" points="133.5,136.5 133.5,121.1 136.3,121.1 136.3,127.5 143.2,127.5 143.2,121.1 146,121.1 146,136.5 
	143.2,136.5 143.2,129.8 136.3,129.8 136.3,136.5 "/>
<path class="st2" d="M156.6,136.7c-1.5,0-2.9-0.3-4-1c-1.2-0.7-2.1-1.6-2.7-2.8c-0.7-1.2-1-2.6-1-4.1c0-1.6,0.3-3,1-4.1
	c0.7-1.2,1.6-2.1,2.7-2.8c1.2-0.7,2.5-1,4-1c1.5,0,2.9,0.3,4,1c1.2,0.7,2.1,1.6,2.7,2.8c0.6,1.2,1,2.6,1,4.1c0,1.6-0.3,3-1,4.1
	c-0.6,1.2-1.5,2.1-2.7,2.8C159.5,136.4,158.2,136.7,156.6,136.7 M156.6,134.2c1.5,0,2.6-0.5,3.5-1.5c0.9-1,1.3-2.3,1.3-4
	c0-1.7-0.4-3-1.3-4c-0.9-1-2-1.5-3.5-1.5c-1.5,0-2.6,0.5-3.5,1.5c-0.9,1-1.3,2.3-1.3,4c0,1.7,0.4,3,1.3,4S155.2,134.2,156.6,134.2"
	/>
<polygon class="st2" points="167.3,136.5 167.3,121.1 170.6,121.1 175.5,130.8 180.4,121.1 183.7,121.1 183.7,136.5 180.9,136.5 
	180.9,125.8 176.6,134.3 174.4,134.3 170.1,125.8 170.1,136.5 "/>
<polygon class="st2" points="187.1,136.5 187.1,121.1 197.2,121.1 197.2,123.3 189.9,123.3 189.9,127.6 196.5,127.6 196.5,129.8 
	189.9,129.8 189.9,134.2 197.2,134.2 197.2,136.5 "/>
<path class="st2" d="M212.9,136.7c-1.6,0-2.9-0.3-4-1c-1.1-0.7-2-1.6-2.6-2.8c-0.6-1.2-0.9-2.6-0.9-4.1c0-1.6,0.3-3,0.9-4.2
	c0.6-1.2,1.5-2.1,2.6-2.8c1.1-0.7,2.4-1,4-1c1.8,0,3.4,0.5,4.5,1.4c1.2,0.9,1.9,2.2,2.2,3.9h-3.1c-0.2-0.8-0.6-1.5-1.2-2
	c-0.6-0.5-1.4-0.7-2.5-0.7c-1.4,0-2.5,0.5-3.3,1.5c-0.8,1-1.2,2.3-1.2,4c0,1.7,0.4,3,1.2,4c0.8,1,1.9,1.4,3.3,1.4
	c1,0,1.9-0.2,2.5-0.7c0.6-0.4,1-1.1,1.2-1.9h3.1c-0.3,1.6-1,2.8-2.2,3.7C216.3,136.3,214.8,136.7,212.9,136.7"/>
<path class="st2" d="M229.8,136.7c-1.5,0-2.9-0.3-4-1c-1.2-0.7-2.1-1.6-2.7-2.8c-0.7-1.2-1-2.6-1-4.1c0-1.6,0.3-3,1-4.1
	c0.7-1.2,1.6-2.1,2.7-2.8c1.2-0.7,2.5-1,4-1c1.5,0,2.9,0.3,4,1c1.2,0.7,2.1,1.6,2.7,2.8c0.6,1.2,1,2.6,1,4.1c0,1.6-0.3,3-1,4.1
	c-0.6,1.2-1.5,2.1-2.7,2.8C232.7,136.4,231.4,136.7,229.8,136.7 M229.8,134.2c1.5,0,2.6-0.5,3.5-1.5c0.9-1,1.3-2.3,1.3-4
	c0-1.7-0.4-3-1.3-4c-0.9-1-2-1.5-3.5-1.5c-1.5,0-2.6,0.5-3.5,1.5c-0.9,1-1.3,2.3-1.3,4c0,1.7,0.4,3,1.3,4S228.4,134.2,229.8,134.2"
	/>
<polygon class="st2" points="240.5,136.5 240.5,121.1 243.3,121.1 250.5,131.9 250.5,121.1 253.3,121.1 253.3,136.5 250.5,136.5 
	243.3,125.6 243.3,136.5 "/>
<path class="st2" d="M262,136.7c-1.1,0-2.1-0.2-3-0.6c-0.9-0.4-1.5-0.9-2-1.7c-0.5-0.7-0.8-1.6-0.8-2.7h3c0,0.7,0.3,1.3,0.8,1.8
	c0.5,0.5,1.2,0.7,2,0.7c0.7,0,1.3-0.2,1.8-0.5c0.4-0.4,0.7-0.8,0.7-1.4c0-0.6-0.2-1.1-0.6-1.5c-0.4-0.4-0.9-0.6-1.6-0.9
	c-0.6-0.2-1.3-0.5-2.1-0.7c-1.2-0.4-2.1-0.9-2.7-1.6s-0.9-1.5-0.9-2.6c0-0.9,0.2-1.7,0.6-2.3c0.4-0.7,1.1-1.2,1.8-1.5
	c0.8-0.4,1.7-0.5,2.7-0.5c1,0,1.9,0.2,2.7,0.6c0.8,0.4,1.4,0.9,1.8,1.5c0.4,0.7,0.7,1.4,0.7,2.4h-3c0-0.5-0.2-1-0.6-1.4
	c-0.4-0.4-1-0.6-1.7-0.6c-0.6,0-1.1,0.1-1.6,0.5c-0.4,0.3-0.6,0.8-0.6,1.4c0,0.5,0.2,0.9,0.5,1.2c0.3,0.3,0.8,0.6,1.3,0.8
	c0.6,0.2,1.2,0.4,1.9,0.7c0.8,0.3,1.5,0.6,2.1,0.9c0.6,0.4,1.1,0.8,1.5,1.4c0.4,0.6,0.6,1.3,0.6,2.2c0,0.8-0.2,1.6-0.6,2.2
	c-0.4,0.7-1,1.2-1.8,1.7C264.2,136.5,263.2,136.7,262,136.7"/>
<polygon class="st2" points="273.7,136.5 273.7,123.3 269.2,123.3 269.2,121.1 281,121.1 281,123.3 276.5,123.3 276.5,136.5 "/>
<path class="st2" d="M283.6,136.5v-15.4h5.7c1.2,0,2.2,0.2,3,0.6c0.8,0.4,1.4,1,1.8,1.7c0.4,0.7,0.6,1.5,0.6,2.4
	c0,0.9-0.2,1.8-0.7,2.6c-0.5,0.8-1.3,1.3-2.3,1.7l3.2,6.4h-3.2l-2.9-6.1h-2.3v6.1H283.6z M286.4,128.3h2.7c0.9,0,1.6-0.2,2.1-0.7
	c0.4-0.5,0.7-1.1,0.7-1.8c0-0.7-0.2-1.3-0.6-1.8c-0.4-0.4-1.1-0.7-2.1-0.7h-2.6V128.3z"/>
<path class="st2" d="M303.7,136.7c-1.1,0-2.1-0.2-3.1-0.7c-0.9-0.4-1.6-1.1-2.2-2c-0.5-0.9-0.8-2.1-0.8-3.5v-9.5h2.8v9.5
	c0,1.2,0.3,2.1,0.9,2.7c0.6,0.6,1.4,0.9,2.4,0.9c1,0,1.8-0.3,2.4-0.9c0.6-0.6,0.9-1.5,0.9-2.7v-9.5h2.8v9.5c0,1.4-0.3,2.5-0.8,3.5
	c-0.6,0.9-1.3,1.6-2.2,2C305.8,136.5,304.8,136.7,303.7,136.7"/>
<path class="st2" d="M320.1,136.7c-1.6,0-2.9-0.3-4-1c-1.1-0.7-2-1.6-2.6-2.8c-0.6-1.2-0.9-2.6-0.9-4.1c0-1.6,0.3-3,0.9-4.2
	c0.6-1.2,1.5-2.1,2.6-2.8c1.1-0.7,2.4-1,4-1c1.8,0,3.4,0.5,4.5,1.4c1.2,0.9,1.9,2.2,2.2,3.9h-3.1c-0.2-0.8-0.6-1.5-1.2-2
	c-0.6-0.5-1.4-0.7-2.5-0.7c-1.4,0-2.5,0.5-3.3,1.5c-0.8,1-1.2,2.3-1.2,4c0,1.7,0.4,3,1.2,4c0.8,1,1.9,1.4,3.3,1.4
	c1,0,1.9-0.2,2.5-0.7c0.6-0.4,1-1.1,1.2-1.9h3.1c-0.3,1.6-1,2.8-2.2,3.7C323.5,136.3,322,136.7,320.1,136.7"/>
<polygon class="st2" points="333.2,136.5 333.2,123.3 328.7,123.3 328.7,121.1 340.5,121.1 340.5,123.3 336,123.3 336,136.5 "/>
<rect x="343" y="121.1" class="st2" width="2.8" height="15.4"/>
<path class="st2" d="M356.5,136.7c-1.5,0-2.9-0.3-4-1c-1.2-0.7-2.1-1.6-2.7-2.8c-0.7-1.2-1-2.6-1-4.1c0-1.6,0.3-3,1-4.1
	c0.7-1.2,1.6-2.1,2.7-2.8c1.2-0.7,2.5-1,4-1c1.5,0,2.9,0.3,4,1c1.2,0.7,2.1,1.6,2.7,2.8c0.6,1.2,1,2.6,1,4.1c0,1.6-0.3,3-1,4.1
	c-0.6,1.2-1.5,2.1-2.7,2.8C359.4,136.4,358,136.7,356.5,136.7 M356.5,134.2c1.5,0,2.6-0.5,3.5-1.5c0.9-1,1.3-2.3,1.3-4
	c0-1.7-0.4-3-1.3-4c-0.9-1-2-1.5-3.5-1.5c-1.5,0-2.6,0.5-3.5,1.5c-0.9,1-1.3,2.3-1.3,4c0,1.7,0.4,3,1.3,4S355,134.2,356.5,134.2"/>
<polygon class="st2" points="367.1,136.5 367.1,121.1 369.9,121.1 377.2,131.9 377.2,121.1 380,121.1 380,136.5 377.2,136.5 
	369.9,125.6 369.9,136.5 "/>
<rect x="-280" y="-180" class="st3" width="960" height="560"/>
<rect x="-280" y="-180" class="st3" width="960" height="560"/>
</svg>
